<svg width="54" height="54" viewBox="0 0 54 54" fill="none" xmlns="http://www.w3.org/2000/svg">
<path d="M4.5 6.75H18C20.3869 6.75 22.6761 7.69821 24.364 9.38604C26.0518 11.0739 27 13.3631 27 15.75V47.25C27 45.4598 26.2888 43.7429 25.023 42.477C23.7571 41.2112 22.0402 40.5 20.25 40.5H4.5V6.75Z" stroke="#155CA2" stroke-width="2" stroke-linecap="round" stroke-linejoin="round"/>
<path d="M49.5 6.75H36C33.6131 6.75 31.3239 7.69821 29.636 9.38604C27.9482 11.0739 27 13.3631 27 15.75V47.25C27 45.4598 27.7112 43.7429 28.977 42.477C30.2429 41.2112 31.9598 40.5 33.75 40.5H49.5V6.75Z" stroke="#155CA2" stroke-width="2" stroke-linecap="round" stroke-linejoin="round"/>
</svg>
