<svg width="22" height="23" viewBox="0 0 22 23" fill="none" xmlns="http://www.w3.org/2000/svg">
<path d="M17.4167 10.5833H4.58333C3.57081 10.5833 2.75 11.4041 2.75 12.4166V18.8333C2.75 19.8458 3.57081 20.6666 4.58333 20.6666H17.4167C18.4292 20.6666 19.25 19.8458 19.25 18.8333V12.4166C19.25 11.4041 18.4292 10.5833 17.4167 10.5833Z" stroke="#878787" stroke-width="2" stroke-linecap="round" stroke-linejoin="round"/>
<path d="M6.4165 10.5833V6.91665C6.4165 5.70107 6.89939 4.53528 7.75893 3.67574C8.61847 2.8162 9.78426 2.33331 10.9998 2.33331C12.2154 2.33331 13.3812 2.8162 14.2407 3.67574C15.1003 4.53528 15.5832 5.70107 15.5832 6.91665V10.5833" stroke="#878787" stroke-width="2" stroke-linecap="round" stroke-linejoin="round"/>
</svg>
